# xmcd CD database file
#
# Track frame offsets:
#	150
#	20820
#	28892
#	45520
#	62730
#	82895
#	102535
#	122625
#	138270
#	154727
#	168730
#	186690
#	206297
#	217267
#	238600
#	252330
#	277510
#	294782
#
# Disc length: 4199 seconds
#
# Revision: 1
# Processed by: cddbd v1.5.2PL0 Copyright (c) Steve Scherf et al.
# Submitted via: CDex 1.70beta3
#
DISCID=07106512
DTITLE=Various Artist - 日本アニメーションの世界 主題歌・挿入歌大全集 第3集 SF・ファンタジー編 DISC2
DYEAR=2004
DGENRE=Anime
TTITLE0=堀江美都子/愛が心にこだまする
TTITLE1=堀江美都子/シビップの歌
TTITLE2=影山ヒロノブ／こおろぎ'73/ソウルブラザー
TTITLE3=山野さと子/バルバラのテーマ・ファンタジーください-
TTITLE4=影山ヒロノブ、こおろぎ'73/LIVING IN THE LIFE
TTITLE5=日高のり子/ときめきはForever
TTITLE6=日高のり子/晴れた日にも愛をください
TTITLE7=銀河万丈／はせさん治／緒方賢一/カラカラまっくら
TTITLE8=中原茂／石丸博也／山寺宏一／皆口裕子/ボスコアドベンチャー
TTITLE9=堀江美都子/愛こそヒーロー
TTITLE10=堀江美都子/ハローグッバイ ～終わらないパレード～
TTITLE11=濱崎直子/Flower of Desert
TTITLE12=濱崎直子/Twilight Songs
TTITLE13=かないみか/Far away -君と-
TTITLE14=緒方恵美／亀井芳子/FLY HIGH
TTITLE15=TOo's/MAGIC OF LOVE
TTITLE16=奥井亜紀/Wind Climbing ～風にあそばれて～
TTITLE17=奥井亜紀/晴れてハレルヤ
EXTD=YEAR: 2004
EXTT0=
EXTT1=
EXTT2=
EXTT3=
EXTT4=
EXTT5=
EXTT6=
EXTT7=
EXTT8=
EXTT9=
EXTT10=
EXTT11=
EXTT12=
EXTT13=
EXTT14=
EXTT15=
EXTT16=
EXTT17=
PLAYORDER=
